<svg width="51" height="51" viewBox="0 0 51 51" fill="none" xmlns="http://www.w3.org/2000/svg">
<g filter="url(#filter0_d_328_101)">
<path d="M33.8801 21.2744C33.8801 26.0268 30.0275 29.8795 25.277 29.8795C20.5237 29.8795 16.6711 26.0268 16.6711 21.2744C16.6711 16.521 20.5237 12.6684 25.277 12.6684C30.0275 12.6684 33.8801 16.521 33.8801 21.2744Z" fill="#F6C833"/>
<path d="M25.2768 9.40031C24.7072 9.40031 24.2442 8.94013 24.2442 8.37051V1.03008C24.2442 0.460467 24.7072 0.000281334 25.2768 0.000281334C25.8464 0.000281334 26.3066 0.460467 26.3066 1.03008V8.37051C26.3066 8.94013 25.8464 9.40031 25.2768 9.40031Z" fill="#F6C833"/>
<path d="M25.2768 42.5499C24.7072 42.5499 24.2442 42.0881 24.2442 41.5185V34.1797C24.2442 33.6101 24.7072 33.1482 25.2768 33.1482C25.8464 33.1482 26.3066 33.6101 26.3066 34.1797V41.5185C26.3066 42.0881 25.8464 42.5499 25.2768 42.5499Z" fill="#F6C833"/>
<path d="M33.6724 12.8792C33.2683 12.4751 33.2683 11.8213 33.6724 11.4201L38.8606 6.22902C39.2647 5.82776 39.9185 5.82776 40.3197 6.22902C40.7238 6.63308 40.7238 7.28687 40.3197 7.68813L35.1315 12.8792C34.7274 13.2804 34.0764 13.2804 33.6724 12.8792Z" fill="#F6C833"/>
<path d="M10.2318 36.3187C9.82886 35.9158 9.82886 35.2626 10.2318 34.8599L15.4209 29.6705C15.8236 29.2679 16.4768 29.2679 16.8798 29.6705C17.2824 30.0735 17.2824 30.7264 16.8798 31.1294L11.6904 36.3187C11.2874 36.7217 10.6345 36.7217 10.2318 36.3187Z" fill="#F6C833"/>
<path d="M37.149 21.2748C37.149 20.7052 37.612 20.2422 38.1816 20.2422H45.5193C46.0889 20.2422 46.5519 20.7052 46.5519 21.2748C46.5519 21.8444 46.0889 22.3074 45.5193 22.3074H38.1816C37.612 22.3074 37.149 21.8444 37.149 21.2748Z" fill="#F6C833"/>
<path d="M3.99997 21.2748C3.99997 20.7052 4.46185 20.2422 5.03147 20.2422H12.3705C12.9401 20.2422 13.4017 20.7052 13.4017 21.2748C13.4017 21.8444 12.9401 22.3074 12.3705 22.3074H5.03147C4.46185 22.3074 3.99997 21.8444 3.99997 21.2748Z" fill="#F6C833"/>
<path d="M33.6724 29.6705C34.0764 29.2679 34.7274 29.2679 35.1315 29.6705L40.3197 34.8599C40.7238 35.2626 40.7238 35.9158 40.3197 36.3187C39.9185 36.7217 39.2647 36.7217 38.8606 36.3187L33.6724 31.1294C33.2683 30.7264 33.2683 30.0735 33.6724 29.6705Z" fill="#F6C833"/>
<path d="M10.2318 6.22902C10.6345 5.82776 11.2874 5.82776 11.6904 6.22902L16.8798 11.4201C17.2824 11.8213 17.2824 12.4751 16.8798 12.8792C16.4768 13.2804 15.8236 13.2804 15.4209 12.8792L10.2318 7.68813C9.82886 7.28687 9.82886 6.63308 10.2318 6.22902Z" fill="#F6C833"/>
</g>
<defs>
<filter id="filter0_d_328_101" x="-3.05176e-05" y="0.000274658" width="50.5519" height="50.5497" filterUnits="userSpaceOnUse" color-interpolation-filters="sRGB">
<feFlood flood-opacity="0" result="BackgroundImageFix"/>
<feColorMatrix in="SourceAlpha" type="matrix" values="0 0 0 0 0 0 0 0 0 0 0 0 0 0 0 0 0 0 127 0" result="hardAlpha"/>
<feOffset dy="4"/>
<feGaussianBlur stdDeviation="2"/>
<feComposite in2="hardAlpha" operator="out"/>
<feColorMatrix type="matrix" values="0 0 0 0 0 0 0 0 0 0 0 0 0 0 0 0 0 0 0.25 0"/>
<feBlend mode="normal" in2="BackgroundImageFix" result="effect1_dropShadow_328_101"/>
<feBlend mode="normal" in="SourceGraphic" in2="effect1_dropShadow_328_101" result="shape"/>
</filter>
</defs>
</svg>
