<svg width="52" height="48" viewBox="0 0 52 48" fill="none" xmlns="http://www.w3.org/2000/svg">
<g filter="url(#filter0_d_328_115)">
<path d="M42.4726 16.0461C42.4514 16.0461 42.432 16.0519 42.411 16.0521C42.8005 15.1512 43.0187 14.1588 43.0187 13.1149C43.0187 9.0215 39.7001 5.70293 35.6067 5.70293C34.1599 5.70293 32.8145 6.12398 31.6736 6.84078C30.1304 3.09007 26.4438 0.447144 22.1365 0.447144C16.4407 0.447144 11.8237 5.06418 11.8237 10.76C11.8237 11.1903 11.8585 11.6121 11.9098 12.0286C11.8807 12.0284 11.8527 12.0243 11.8237 12.0243C8.005 12.0243 4.90909 15.1201 4.90909 18.939C4.90909 22.7577 8.005 25.8535 11.8237 25.8535H42.4726C45.181 25.8535 47.3763 23.6581 47.3763 20.9498C47.3763 18.2414 45.181 16.0461 42.4726 16.0461Z" fill="white"/>
<path d="M18.4984 37.935C17.6654 39.6679 15.5852 40.3976 13.8523 39.5646C12.1194 38.7317 11.3897 36.6515 12.2227 34.9186C13.056 33.1856 18.4426 30.0149 18.4426 30.0149C18.4426 30.0149 19.3314 36.2021 18.4984 37.935Z" fill="#C2CEF2"/>
<path d="M27.1554 37.935C26.3227 39.6679 24.2425 40.3976 22.5096 39.5646C20.7764 38.7317 20.047 36.6515 20.88 34.9186C21.7132 33.1856 27.0998 30.0149 27.0998 30.0149C27.0998 30.0149 27.9886 36.2021 27.1554 37.935Z" fill="#C2CEF2"/>
<path d="M35.9348 37.935C35.1018 39.6679 33.0216 40.3976 31.2887 39.5646C29.5558 38.7317 28.8264 36.6515 29.6591 34.9186C30.4924 33.1856 35.879 30.0149 35.879 30.0149C35.879 30.0149 36.7678 36.2021 35.9348 37.935Z" fill="#C2CEF2"/>
</g>
<defs>
<filter id="filter0_d_328_115" x="0.909088" y="0.447144" width="50.4673" height="47.4619" filterUnits="userSpaceOnUse" color-interpolation-filters="sRGB">
<feFlood flood-opacity="0" result="BackgroundImageFix"/>
<feColorMatrix in="SourceAlpha" type="matrix" values="0 0 0 0 0 0 0 0 0 0 0 0 0 0 0 0 0 0 127 0" result="hardAlpha"/>
<feOffset dy="4"/>
<feGaussianBlur stdDeviation="2"/>
<feComposite in2="hardAlpha" operator="out"/>
<feColorMatrix type="matrix" values="0 0 0 0 0 0 0 0 0 0 0 0 0 0 0 0 0 0 0.25 0"/>
<feBlend mode="normal" in2="BackgroundImageFix" result="effect1_dropShadow_328_115"/>
<feBlend mode="normal" in="SourceGraphic" in2="effect1_dropShadow_328_115" result="shape"/>
</filter>
</defs>
</svg>
